<svg width="24" height="24" viewBox="0 0 24 24" fill="none" xmlns="http://www.w3.org/2000/svg">
<path d="M14.2495 19.4982V14.9981C14.2495 14.7992 14.1704 14.6084 14.0298 14.4678C13.8891 14.3271 13.6984 14.2481 13.4995 14.2481H10.4995C10.3005 14.2481 10.1098 14.3271 9.96912 14.4678C9.82847 14.6084 9.74945 14.7992 9.74945 14.9981V19.4982C9.74945 19.6971 9.67045 19.8878 9.52981 20.0285C9.38918 20.1691 9.19844 20.2482 8.99954 20.2482L4.50009 20.2488C4.40159 20.2488 4.30406 20.2294 4.21305 20.1917C4.12205 20.154 4.03936 20.0988 3.9697 20.0291C3.90005 19.9595 3.8448 19.8768 3.8071 19.7858C3.7694 19.6948 3.75 19.5973 3.75 19.4988V10.8306C3.75 10.7261 3.77183 10.6228 3.8141 10.5272C3.85637 10.4317 3.91814 10.346 3.99545 10.2757L11.4949 3.45681C11.633 3.33128 11.8129 3.26172 11.9995 3.26172C12.186 3.26171 12.3659 3.33126 12.504 3.45677L20.0045 10.2757C20.0818 10.346 20.1436 10.4317 20.1859 10.5272C20.2282 10.6228 20.25 10.7261 20.25 10.8306V19.4988C20.25 19.5973 20.2306 19.6948 20.1929 19.7858C20.1552 19.8768 20.1 19.9595 20.0303 20.0291C19.9606 20.0988 19.878 20.154 19.7869 20.1917C19.6959 20.2294 19.5984 20.2488 19.4999 20.2488L14.9994 20.2482C14.8005 20.2482 14.6097 20.1691 14.4691 20.0285C14.3285 19.8878 14.2494 19.6971 14.2495 19.4982V19.4982Z" stroke="white" stroke-width="1.5" stroke-linecap="round" stroke-linejoin="round"/>
</svg>
